<svg version="1.1" id="Layer_1" xmlns="http://www.w3.org/2000/svg" xmlns:xlink="http://www.w3.org/1999/xlink" x="0px" y="0px"
	 width="100%" viewBox="0 0 364 363" enable-background="new 0 0 364 363" xml:space="preserve">
<path fill="#363334" opacity="1.000000" stroke="none" 
	d="
M1.000000,136.000000 
	C1.000000,90.682068 1.000000,45.864136 1.000000,1.023100 
	C122.276253,1.023100 243.552505,1.023100 364.914368,1.023100 
	C364.914368,121.901306 364.914368,242.802689 364.914368,363.852051 
	C243.666794,363.852051 122.333420,363.852051 1.000000,363.852051 
	C1.000000,288.114105 1.000000,212.307053 1.000000,136.000000 
M361.997925,345.497803 
	C361.997894,234.036575 361.998169,122.575356 361.997162,11.114136 
	C361.997101,3.990583 361.992523,3.984739 355.012848,3.984664 
	C240.385910,3.983434 125.758972,3.983512 11.132029,3.984448 
	C4.007005,3.984506 4.001427,3.988944 4.001356,10.966595 
	C4.000185,125.593536 4.000254,240.220474 4.001151,354.847412 
	C4.001206,361.969299 4.005424,361.974884 10.985951,361.974976 
	C98.289032,361.976288 185.592117,361.975922 272.895203,361.975861 
	C300.885498,361.975830 328.876068,361.916840 356.865784,362.043640 
	C360.690857,362.060974 362.416138,361.074219 362.059662,356.986877 
	C361.756836,353.514526 361.997620,349.994751 361.997925,345.497803 
z"/>
<path fill="#201E1E" opacity="1.000000" stroke="none" 
	d="
M361.997925,345.996887 
	C361.997620,349.994751 361.756836,353.514526 362.059662,356.986877 
	C362.416138,361.074219 360.690857,362.060974 356.865784,362.043640 
	C328.876068,361.916840 300.885498,361.975830 272.895203,361.975861 
	C185.592117,361.975922 98.289032,361.976288 10.985951,361.974976 
	C4.005424,361.974884 4.001206,361.969299 4.001151,354.847412 
	C4.000254,240.220474 4.000185,125.593536 4.001356,10.966595 
	C4.001427,3.988944 4.007005,3.984506 11.132029,3.984448 
	C125.758972,3.983512 240.385910,3.983434 355.012848,3.984664 
	C361.992523,3.984739 361.997101,3.990583 361.997162,11.114136 
	C361.998169,122.575356 361.997894,234.036575 361.997925,345.996887 
M268.636902,84.879456 
	C264.638550,82.186859 260.775635,79.262123 256.620514,76.838287 
	C222.554413,56.966312 186.024155,53.450821 148.116074,61.540352 
	C119.927650,67.555710 96.085175,81.527473 77.562752,103.824066 
	C54.070950,132.102585 46.090580,164.883987 50.985283,200.893723 
	C56.153740,238.917404 75.454575,268.704407 108.438286,287.560303 
	C156.482803,315.026093 206.417786,315.666473 255.029388,289.020813 
	C303.835205,262.268707 324.913422,208.010178 313.285309,154.640976 
	C307.098022,126.243324 291.694733,103.459969 268.636902,84.879456 
z"/>
<path fill="#F5F5F5" opacity="1.000000" stroke="none" 
	d="
M268.925262,85.087326 
	C291.694733,103.459969 307.098022,126.243324 313.285309,154.640976 
	C324.913422,208.010178 303.835205,262.268707 255.029388,289.020813 
	C206.417786,315.666473 156.482803,315.026093 108.438286,287.560303 
	C75.454575,268.704407 56.153740,238.917404 50.985283,200.893723 
	C46.090580,164.883987 54.070950,132.102585 77.562752,103.824066 
	C96.085175,81.527473 119.927650,67.555710 148.116074,61.540352 
	C186.024155,53.450821 222.554413,56.966312 256.620514,76.838287 
	C260.775635,79.262123 264.638550,82.186859 268.925262,85.087326 
M90.261452,98.756058 
	C62.044365,127.064720 51.239059,161.364258 57.048145,200.477814 
	C63.976440,247.127258 91.525703,277.497406 135.020142,293.750946 
	C158.595673,302.560944 183.210800,303.590515 207.885956,299.703125 
	C233.999512,295.589142 257.221893,284.887115 276.021118,265.977692 
	C303.866760,237.968796 314.416840,203.906174 308.983643,165.103195 
	C303.754211,127.755737 283.823273,99.906181 251.548569,80.835594 
	C231.760132,69.142937 210.075638,64.229416 187.223602,63.707920 
	C150.617752,62.872543 117.972008,72.933388 90.261452,98.756058 
z"/>
<path fill="#221F1F" opacity="1.000000" stroke="none" 
	d="
M90.509972,98.502357 
	C117.972008,72.933388 150.617752,62.872543 187.223602,63.707920 
	C210.075638,64.229416 231.760132,69.142937 251.548569,80.835594 
	C283.823273,99.906181 303.754211,127.755737 308.983643,165.103195 
	C314.416840,203.906174 303.866760,237.968796 276.021118,265.977692 
	C257.221893,284.887115 233.999512,295.589142 207.885956,299.703125 
	C183.210800,303.590515 158.595673,302.560944 135.020142,293.750946 
	C91.525703,277.497406 63.976440,247.127258 57.048145,200.477814 
	C51.239059,161.364258 62.044365,127.064720 90.509972,98.502357 
M97.199387,193.442169 
	C96.413986,205.242737 100.106590,215.243759 108.485046,223.766220 
	C113.725121,229.096375 118.323143,235.065948 123.102997,240.836639 
	C125.276947,243.461227 127.193512,246.298996 129.435379,249.321213 
	C118.684532,251.159393 118.684525,251.159393 118.926674,261.887451 
	C118.941711,262.553436 118.705360,263.390625 119.019844,263.853180 
	C119.954239,265.227448 121.105515,266.454224 122.172012,267.738647 
	C123.443871,266.464569 125.271347,265.398254 125.845390,263.863220 
	C126.545700,261.990509 126.192955,259.723999 126.301506,257.508301 
	C140.479477,257.508301 154.212433,257.508301 168.150681,257.508301 
	C168.461746,260.274841 168.510773,262.790588 169.120544,265.162170 
	C169.383026,266.183014 170.818100,267.605469 171.701736,267.592316 
	C172.909241,267.574249 175.051163,266.460052 175.136566,265.642731 
	C175.581192,261.387238 176.095444,256.963318 175.308945,252.841599 
	C174.995361,251.198242 171.403351,250.180496 168.809158,248.571106 
	C168.809158,240.854050 168.867233,232.538010 168.791321,224.223206 
	C168.727295,217.210526 167.431931,210.375519 162.071365,205.460175 
	C150.534744,194.881638 141.486343,181.491333 127.368484,174.327881 
	C128.292938,168.381027 129.772629,162.522354 129.964951,156.621735 
	C130.167450,150.408936 124.007660,144.638046 116.949753,143.458054 
	C110.800797,142.430008 109.304466,147.464142 106.973915,151.422928 
	C99.505798,164.108688 95.848579,177.683350 97.199387,193.442169 
M247.083054,254.912415 
	C246.738770,247.798782 240.603958,251.171692 236.609695,249.272049 
	C237.870728,247.430481 238.906433,245.630554 240.214188,244.056686 
	C246.814529,236.113281 253.485031,228.228195 260.132263,220.323761 
	C264.861450,214.700119 268.170898,208.420944 268.334534,200.926682 
	C268.487061,193.942902 268.143158,186.947464 268.328552,179.965408 
	C268.662018,167.408997 261.743042,157.515762 256.374908,147.105957 
	C254.110107,142.714111 249.992599,142.294312 245.558823,144.313248 
	C237.257904,148.093079 233.978729,155.272690 236.466049,164.506699 
	C237.395798,167.958282 238.342636,171.405243 238.867447,173.332870 
	C233.437103,177.524567 228.784164,180.632431 224.715317,184.375244 
	C219.205246,189.443802 214.491104,195.407303 208.809662,200.253098 
	C199.633575,208.079620 196.150925,217.725250 196.970825,229.520950 
	C197.429367,236.117828 197.053299,242.772736 197.053299,249.054306 
	C194.586578,250.115799 191.141266,250.768402 191.028992,251.788025 
	C190.496048,256.627960 190.789124,261.572418 191.054565,266.465179 
	C191.080444,266.941986 193.055679,267.825226 193.904968,267.617157 
	C194.997513,267.349518 196.102417,266.324432 196.753922,265.331573 
	C197.235382,264.597839 197.195679,263.364868 197.051498,262.404877 
	C196.394196,258.028198 198.627411,256.970642 202.507065,257.051056 
	C209.334000,257.192566 216.167053,257.027893 222.997604,257.009338 
	C228.442993,256.994537 233.888458,257.006348 239.598434,257.006348 
	C239.760605,259.928925 239.489532,262.179962 240.124146,264.137390 
	C240.599350,265.603058 242.241241,266.690491 243.363632,267.946320 
	C244.521744,266.731781 246.380569,265.671295 246.688599,264.269928 
	C247.285614,261.553741 247.010223,258.645782 247.083054,254.912415 
M199.720184,148.927078 
	C192.317276,139.358307 181.064636,136.882050 172.085281,142.845718 
	C161.950058,149.577072 161.217224,159.052307 168.955719,173.348862 
	C164.655396,178.750687 160.388092,183.515976 156.946930,188.817505 
	C155.987549,190.295547 157.470306,193.358795 157.832748,195.694824 
	C159.625397,194.397842 162.217728,193.486832 163.064163,191.733170 
	C165.855453,185.950119 170.140671,182.123871 176.080032,180.134796 
	C186.877426,176.518768 197.460892,181.204391 202.590195,191.814087 
	C203.829224,194.376923 205.315552,197.151321 208.341934,195.336929 
	C209.472076,194.659378 209.142502,191.120468 209.000427,188.917068 
	C208.922745,187.712311 208.038605,186.403549 207.186920,185.432068 
	C203.737839,181.497894 200.160248,177.676376 196.563095,173.740021 
	C203.545578,162.509964 204.204910,158.156982 199.720184,148.927078 
M132.847473,149.742981 
	C134.556183,148.683655 136.328888,147.713852 137.960922,146.547272 
	C141.960556,143.688339 145.569824,140.013519 149.954834,138.045334 
	C153.745651,136.343842 158.388535,136.542572 162.654007,135.896317 
	C171.711868,134.524033 178.469849,127.209175 179.644974,117.509811 
	C180.572021,109.858025 175.611633,102.279686 167.422501,98.836670 
	C158.833618,95.225578 150.155167,97.082718 144.772751,103.683578 
	C138.996597,110.767311 138.634750,120.338226 143.845535,127.779976 
	C144.578369,128.826569 145.241226,129.922134 145.562943,130.418625 
	C140.820160,134.636261 136.235001,138.385300 132.076157,142.559128 
	C130.171753,144.470398 129.220154,147.214310 132.847473,149.742981 
M187.960617,112.636093 
	C183.212555,126.933273 191.779236,139.431107 207.110092,139.840012 
	C215.155624,140.054611 221.541748,142.726273 227.008926,148.584778 
	C228.309357,149.978287 232.088699,151.063248 233.199600,150.236557 
	C236.039352,148.123260 234.139236,145.292969 232.117981,143.502518 
	C228.408646,140.216782 224.393219,137.276581 221.367111,134.875946 
	C222.796600,129.304565 225.331131,123.832741 225.348221,118.353065 
	C225.375595,109.578842 218.523453,102.661835 210.111725,100.922920 
	C200.992676,99.037766 193.393707,102.859055 187.960617,112.636093 
z"/>
<path fill="#E63136" opacity="1.000000" stroke="none" 
	d="
M97.199081,192.951294 
	C95.848579,177.683350 99.505798,164.108688 106.973915,151.422928 
	C109.304466,147.464142 110.800797,142.430008 116.949753,143.458054 
	C124.007660,144.638046 130.167450,150.408936 129.964951,156.621735 
	C129.772629,162.522354 128.292938,168.381027 127.368484,174.327881 
	C141.486343,181.491333 150.534744,194.881638 162.071365,205.460175 
	C167.431931,210.375519 168.727295,217.210526 168.791321,224.223206 
	C168.867233,232.538010 168.809158,240.854050 168.809158,248.571106 
	C171.403351,250.180496 174.995361,251.198242 175.308945,252.841599 
	C176.095444,256.963318 175.581192,261.387238 175.136566,265.642731 
	C175.051163,266.460052 172.909241,267.574249 171.701736,267.592316 
	C170.818100,267.605469 169.383026,266.183014 169.120544,265.162170 
	C168.510773,262.790588 168.461746,260.274841 168.150681,257.508301 
	C154.212433,257.508301 140.479477,257.508301 126.301506,257.508301 
	C126.192955,259.723999 126.545700,261.990509 125.845390,263.863220 
	C125.271347,265.398254 123.443871,266.464569 122.172012,267.738647 
	C121.105515,266.454224 119.954239,265.227448 119.019844,263.853180 
	C118.705360,263.390625 118.941711,262.553436 118.926674,261.887451 
	C118.684525,251.159393 118.684532,251.159393 129.435379,249.321213 
	C127.193512,246.298996 125.276947,243.461227 123.102997,240.836639 
	C118.323143,235.065948 113.725121,229.096375 108.485046,223.766220 
	C100.106590,215.243759 96.413986,205.242737 97.199081,192.951294 
M127.907074,182.915466 
	C124.438538,182.141281 121.615364,182.999802 119.868568,186.267105 
	C118.013817,189.736282 119.124115,192.780380 121.639648,195.343475 
	C125.832832,199.615967 130.361191,203.577057 134.328125,208.042633 
	C135.427673,209.280441 135.042969,211.836761 135.339249,213.788132 
	C133.394989,213.588882 130.733490,214.132507 129.627701,213.064835 
	C124.146469,207.772598 118.608986,202.411942 113.999435,196.381271 
	C109.864395,190.971405 111.159096,184.706375 115.942802,179.612411 
	C117.151367,178.325470 118.502510,176.886307 119.001732,175.273651 
	C120.424675,170.677017 121.521835,165.973175 122.599792,161.277679 
	C123.988739,155.227554 122.216179,152.671524 115.747299,151.072189 
	C107.693214,162.631226 105.577858,172.391647 104.533798,187.452103 
	C103.513412,202.170959 107.837738,213.713684 118.090172,224.295517 
	C125.462639,231.904892 133.423462,239.491684 137.579834,249.663132 
	C145.472488,249.663132 153.370651,249.663132 161.636932,249.663132 
	C161.636932,239.998474 161.924316,230.697159 161.476181,221.431427 
	C161.325668,218.319717 160.086868,214.550949 158.001511,212.364166 
	C148.484848,202.384689 138.490234,192.861008 127.907074,182.915466 
z"/>
<path fill="#E73136" opacity="1.000000" stroke="none" 
	d="
M247.089706,255.364868 
	C247.010223,258.645782 247.285614,261.553741 246.688599,264.269928 
	C246.380569,265.671295 244.521744,266.731781 243.363647,267.946320 
	C242.241241,266.690491 240.599350,265.603058 240.124146,264.137390 
	C239.489532,262.179962 239.760605,259.928925 239.598434,257.006348 
	C233.888458,257.006348 228.442993,256.994537 222.997604,257.009338 
	C216.167053,257.027893 209.334000,257.192566 202.507065,257.051056 
	C198.627411,256.970642 196.394196,258.028198 197.051498,262.404877 
	C197.195679,263.364868 197.235382,264.597839 196.753922,265.331573 
	C196.102417,266.324432 194.997513,267.349518 193.904968,267.617157 
	C193.055679,267.825226 191.080444,266.941986 191.054565,266.465179 
	C190.789124,261.572418 190.496048,256.627960 191.028992,251.788025 
	C191.141266,250.768402 194.586578,250.115799 197.053299,249.054306 
	C197.053299,242.772736 197.429367,236.117828 196.970825,229.520950 
	C196.150925,217.725250 199.633575,208.079620 208.809662,200.253098 
	C214.491104,195.407303 219.205246,189.443802 224.715317,184.375244 
	C228.784164,180.632431 233.437103,177.524567 238.867447,173.332870 
	C238.342636,171.405243 237.395798,167.958282 236.466049,164.506699 
	C233.978729,155.272690 237.257904,148.093079 245.558823,144.313248 
	C249.992599,142.294312 254.110107,142.714111 256.374908,147.105957 
	C261.743042,157.515762 268.662018,167.408997 268.328552,179.965408 
	C268.143158,186.947464 268.487061,193.942902 268.334534,200.926682 
	C268.170898,208.420944 264.861450,214.700119 260.132263,220.323761 
	C253.485031,228.228195 246.814529,236.113281 240.214188,244.056686 
	C238.906433,245.630554 237.870728,247.430481 236.609695,249.272049 
	C240.603958,251.171692 246.738770,247.798782 247.089706,255.364868 
M229.910248,212.365219 
	C231.015381,210.251450 231.758514,207.814590 233.298630,206.089066 
	C236.841309,202.119934 240.942734,198.650223 244.494934,194.688660 
	C247.804901,190.997253 247.718887,187.075516 244.811508,184.453735 
	C241.871887,181.802872 237.417770,182.131851 234.098816,185.410980 
	C225.804138,193.606155 217.481796,201.777145 209.374298,210.154999 
	C207.603729,211.984619 205.740616,214.554169 205.532684,216.924393 
	C204.581207,227.771347 204.203156,238.668594 203.605499,249.802002 
	C212.831635,249.802002 220.762405,249.802002 227.776291,249.802002 
	C229.993958,246.305984 231.585907,243.215546 233.716980,240.557327 
	C238.194687,234.972046 242.492584,229.117264 247.696075,224.265152 
	C258.700653,214.003723 261.710419,201.591461 261.710327,186.925400 
	C261.710236,173.293961 256.395508,162.230347 250.348892,151.021912 
	C244.199692,152.499664 242.238678,154.844406 243.042099,160.398407 
	C243.538651,163.830963 244.792984,167.147980 245.586060,170.545135 
	C246.447006,174.233002 247.386322,177.499039 250.518600,180.400558 
	C255.470261,184.987381 255.372421,193.300095 250.707047,198.631683 
	C246.219208,203.760361 241.230240,208.460602 236.329208,213.212723 
	C234.396347,215.086868 232.113815,216.131180 229.910248,212.365219 
z"/>
<path fill="#E73136" opacity="1.000000" stroke="none" 
	d="
M199.903351,149.252350 
	C204.204910,158.156982 203.545578,162.509964 196.563095,173.740021 
	C200.160248,177.676376 203.737839,181.497894 207.186920,185.432068 
	C208.038605,186.403549 208.922745,187.712311 209.000427,188.917068 
	C209.142502,191.120468 209.472076,194.659378 208.341934,195.336929 
	C205.315552,197.151321 203.829224,194.376923 202.590195,191.814087 
	C197.460892,181.204391 186.877426,176.518768 176.080032,180.134796 
	C170.140671,182.123871 165.855453,185.950119 163.064163,191.733170 
	C162.217728,193.486832 159.625397,194.397842 157.832748,195.694824 
	C157.470306,193.358795 155.987549,190.295547 156.946930,188.817505 
	C160.388092,183.515976 164.655396,178.750687 168.955719,173.348862 
	C161.217224,159.052307 161.950058,149.577072 172.085281,142.845718 
	C181.064636,136.882050 192.317276,139.358307 199.903351,149.252350 
M193.000931,166.284256 
	C196.172684,160.396896 195.908875,155.255310 192.217346,151.012558 
	C189.003448,147.318756 183.677536,145.894882 179.023010,147.485031 
	C173.985428,149.206070 171.073456,153.039764 170.830032,158.271317 
	C170.574585,163.761017 173.240021,168.564972 177.677185,170.612091 
	C182.591537,172.879333 187.744553,171.595215 193.000931,166.284256 
z"/>
<path fill="#E63136" opacity="1.000000" stroke="none" 
	d="
M132.516220,149.603638 
	C129.220154,147.214310 130.171753,144.470398 132.076157,142.559128 
	C136.235001,138.385300 140.820160,134.636261 145.562943,130.418625 
	C145.241226,129.922134 144.578369,128.826569 143.845535,127.779976 
	C138.634750,120.338226 138.996597,110.767311 144.772751,103.683578 
	C150.155167,97.082718 158.833618,95.225578 167.422501,98.836670 
	C175.611633,102.279686 180.572021,109.858025 179.644974,117.509811 
	C178.469849,127.209175 171.711868,134.524033 162.654007,135.896317 
	C158.388535,136.542572 153.745651,136.343842 149.954834,138.045334 
	C145.569824,140.013519 141.960556,143.688339 137.960922,146.547272 
	C136.328888,147.713852 134.556183,148.683655 132.516220,149.603638 
M170.864273,121.969414 
	C171.263611,120.535339 171.892456,119.121475 172.020782,117.663544 
	C172.470718,112.551743 170.398254,108.535255 166.100876,105.822067 
	C161.659973,103.018265 157.154877,103.709885 152.887894,106.295166 
	C148.538727,108.930229 147.216675,113.047745 147.735413,117.901314 
	C148.285568,123.049049 151.583603,127.116356 156.298065,128.515472 
	C161.376282,130.022537 166.305222,127.985558 170.864273,121.969414 
z"/>
<path fill="#E63136" opacity="1.000000" stroke="none" 
	d="
M188.096619,112.280670 
	C193.393707,102.859055 200.992676,99.037766 210.111725,100.922920 
	C218.523453,102.661835 225.375595,109.578842 225.348221,118.353065 
	C225.331131,123.832741 222.796600,129.304565 221.367111,134.875946 
	C224.393219,137.276581 228.408646,140.216782 232.117981,143.502518 
	C234.139236,145.292969 236.039352,148.123260 233.199600,150.236557 
	C232.088699,151.063248 228.309357,149.978287 227.008926,148.584778 
	C221.541748,142.726273 215.155624,140.054611 207.110092,139.840012 
	C191.779236,139.431107 183.212555,126.933273 188.096619,112.280670 
M193.922546,121.224205 
	C195.694107,129.533493 200.671387,133.313522 208.266296,132.117661 
	C214.622208,131.116882 218.828568,125.510269 218.265915,118.789246 
	C217.747040,112.590866 212.531265,107.839577 206.228958,107.824173 
	C198.834244,107.806099 194.316391,112.399094 193.922546,121.224205 
z"/>
<path fill="#231E1E" opacity="1.000000" stroke="none" 
	d="
M128.287231,183.044495 
	C138.490234,192.861008 148.484848,202.384689 158.001511,212.364166 
	C160.086868,214.550949 161.325668,218.319717 161.476181,221.431427 
	C161.924316,230.697159 161.636932,239.998474 161.636932,249.663132 
	C153.370651,249.663132 145.472488,249.663132 137.579834,249.663132 
	C133.423462,239.491684 125.462639,231.904892 118.090172,224.295517 
	C107.837738,213.713684 103.513412,202.170959 104.533798,187.452103 
	C105.577858,172.391647 107.693214,162.631226 115.747299,151.072189 
	C122.216179,152.671524 123.988739,155.227554 122.599792,161.277679 
	C121.521835,165.973175 120.424675,170.677017 119.001732,175.273651 
	C118.502510,176.886307 117.151367,178.325470 115.942802,179.612411 
	C111.159096,184.706375 109.864395,190.971405 113.999435,196.381271 
	C118.608986,202.411942 124.146469,207.772598 129.627701,213.064835 
	C130.733490,214.132507 133.394989,213.588882 135.339249,213.788132 
	C135.042969,211.836761 135.427673,209.280441 134.328125,208.042633 
	C130.361191,203.577057 125.832832,199.615967 121.639648,195.343475 
	C119.124115,192.780380 118.013817,189.736282 119.868568,186.267105 
	C121.615364,182.999802 124.438538,182.141281 128.287231,183.044495 
z"/>
<path fill="#231E1E" opacity="1.000000" stroke="none" 
	d="
M229.989685,212.749496 
	C232.113815,216.131180 234.396347,215.086868 236.329208,213.212723 
	C241.230240,208.460602 246.219208,203.760361 250.707047,198.631683 
	C255.372421,193.300095 255.470261,184.987381 250.518600,180.400558 
	C247.386322,177.499039 246.447006,174.233002 245.586060,170.545135 
	C244.792984,167.147980 243.538651,163.830963 243.042099,160.398407 
	C242.238678,154.844406 244.199692,152.499664 250.348892,151.021912 
	C256.395508,162.230347 261.710236,173.293961 261.710327,186.925400 
	C261.710419,201.591461 258.700653,214.003723 247.696075,224.265152 
	C242.492584,229.117264 238.194687,234.972046 233.716980,240.557327 
	C231.585907,243.215546 229.993958,246.305984 227.776291,249.802002 
	C220.762405,249.802002 212.831635,249.802002 203.605499,249.802002 
	C204.203156,238.668594 204.581207,227.771347 205.532684,216.924393 
	C205.740616,214.554169 207.603729,211.984619 209.374298,210.154999 
	C217.481796,201.777145 225.804138,193.606155 234.098816,185.410980 
	C237.417770,182.131851 241.871887,181.802872 244.811508,184.453735 
	C247.718887,187.075516 247.804901,190.997253 244.494934,194.688660 
	C240.942734,198.650223 236.841309,202.119934 233.298630,206.089066 
	C231.758514,207.814590 231.015381,210.251450 229.989685,212.749496 
z"/>
<path fill="#241E1E" opacity="1.000000" stroke="none" 
	d="
M192.777924,166.594421 
	C187.744553,171.595215 182.591537,172.879333 177.677185,170.612091 
	C173.240021,168.564972 170.574585,163.761017 170.830032,158.271317 
	C171.073456,153.039764 173.985428,149.206070 179.023010,147.485031 
	C183.677536,145.894882 189.003448,147.318756 192.217346,151.012558 
	C195.908875,155.255310 196.172684,160.396896 192.777924,166.594421 
z"/>
<path fill="#241E1E" opacity="1.000000" stroke="none" 
	d="
M170.676468,122.310181 
	C166.305222,127.985558 161.376282,130.022537 156.298065,128.515472 
	C151.583603,127.116356 148.285568,123.049049 147.735413,117.901314 
	C147.216675,113.047745 148.538727,108.930229 152.887894,106.295166 
	C157.154877,103.709885 161.659973,103.018265 166.100876,105.822067 
	C170.398254,108.535255 172.470718,112.551743 172.020782,117.663544 
	C171.892456,119.121475 171.263611,120.535339 170.676468,122.310181 
z"/>
<path fill="#231E1E" opacity="1.000000" stroke="none" 
	d="
M193.896973,120.805756 
	C194.316391,112.399094 198.834244,107.806099 206.228958,107.824173 
	C212.531265,107.839577 217.747040,112.590866 218.265915,118.789246 
	C218.828568,125.510269 214.622208,131.116882 208.266296,132.117661 
	C200.671387,133.313522 195.694107,129.533493 193.896973,120.805756 
z"/>
</svg>